HIERARCHY
ROOT Hips
{
	OFFSET -14.64140 90.27770 -84.91600
	CHANNELS 6 Xposition Yposition Zposition Zrotation Xrotation Yrotation
	JOINT Spine
	{
		OFFSET 0.00000 13.20850 -1.60436
		CHANNELS 3 Zrotation Xrotation Yrotation
		JOINT Spine1
		{
			OFFSET 0.00000 8.61716 0.00000
			CHANNELS 3 Zrotation Xrotation Yrotation
			JOINT Spine2
			{
				OFFSET 0.00000 8.61717 0.00000
				CHANNELS 3 Zrotation Xrotation Yrotation
				JOINT Spine3
				{
					OFFSET 0.00000 8.61717 0.00000
					CHANNELS 3 Zrotation Xrotation Yrotation
					JOINT Neck
					{
						OFFSET 0.00000 11.07920 1.10792
						CHANNELS 3 Zrotation Xrotation Yrotation
						JOINT Neck1
						{
							OFFSET 0.00000 7.08032 0.00000
							CHANNELS 3 Zrotation Xrotation Yrotation
							JOINT Head
							{
								OFFSET 0.00000 7.08031 0.00000
								CHANNELS 3 Zrotation Xrotation Yrotation
								End site
								{
									OFFSET 0.00000 0.00000 0.00000
								}
							}
						}
					}
					JOINT RightShoulder
					{
						OFFSET -0.01000 7.91373 5.19711
						CHANNELS 3 Zrotation Xrotation Yrotation
						JOINT RightArm
						{
							OFFSET -18.41580 0.00000 0.00000
							CHANNELS 3 Zrotation Xrotation Yrotation
							JOINT RightForeArm
							{
								OFFSET -29.11090 0.00000 0.00000
								CHANNELS 3 Zrotation Xrotation Yrotation
								JOINT RightHand
								{
									OFFSET -24.65040 0.00000 0.00000
									CHANNELS 3 Zrotation Xrotation Yrotation
									JOINT RightHandThumb1
									{
										OFFSET -5.35114 -0.85590 3.97906
										CHANNELS 3 Zrotation Xrotation Yrotation
										JOINT RightHandThumb2
										{
											OFFSET -4.52789 0.00000 0.00000
											CHANNELS 3 Zrotation Xrotation Yrotation
											JOINT RightHandThumb3
											{
												OFFSET -2.46976 0.00000 0.00000
												CHANNELS 3 Zrotation Xrotation Yrotation
												End site
												{
													OFFSET 0.00000 0.00000 0.00000
												}
											}
										}
									}
									JOINT RightHandIndex1
									{
										OFFSET -14.26970 0.00000 2.88139
										CHANNELS 3 Zrotation Xrotation Yrotation
										JOINT RightHandIndex2
										{
											OFFSET -5.48836 0.00000 0.00000
											CHANNELS 3 Zrotation Xrotation Yrotation
											JOINT RightHandIndex3
											{
												OFFSET -3.01859 0.00000 0.00000
												CHANNELS 3 Zrotation Xrotation Yrotation
												End site
												{
													OFFSET 0.00000 0.00000 0.00000
												}
											}
										}
									}
									JOINT RightHandMiddle1
									{
										OFFSET -14.26970 0.00000 -0.09147
										CHANNELS 3 Zrotation Xrotation Yrotation
										JOINT RightHandMiddle2
										{
											OFFSET -6.17441 0.00000 0.00000
											CHANNELS 3 Zrotation Xrotation Yrotation
											JOINT RightHandMiddle3
											{
												OFFSET -3.56743 0.00000 0.00000
												CHANNELS 3 Zrotation Xrotation Yrotation
												End site
												{
													OFFSET 0.00000 0.00000 0.00000
												}
											}
										}
									}
									JOINT RightHandRing1
									{
										OFFSET -12.69180 0.00000 -3.06433
										CHANNELS 3 Zrotation Xrotation Yrotation
										JOINT RightHandRing2
										{
											OFFSET -5.62556 0.00000 0.00000
											CHANNELS 3 Zrotation Xrotation Yrotation
											JOINT RightHandRing3
											{
												OFFSET -3.56744 0.00000 0.00000
												CHANNELS 3 Zrotation Xrotation Yrotation
												End site
												{
													OFFSET 0.00000 0.00000 0.00000
												}
											}
										}
									}
									JOINT RightHandPinky1
									{
										OFFSET -11.11390 0.00000 -6.03719
										CHANNELS 3 Zrotation Xrotation Yrotation
										JOINT RightHandPinky2
										{
											OFFSET -4.52789 0.00000 0.00000
											CHANNELS 3 Zrotation Xrotation Yrotation
											JOINT RightHandPinky3
											{
												OFFSET -2.46976 0.00000 0.00000
												CHANNELS 3 Zrotation Xrotation Yrotation
												End site
												{
													OFFSET 0.00000 0.00000 0.00000
												}
											}
										}
									}
								}
							}
						}
					}
					JOINT LeftShoulder
					{
						OFFSET 0.01000 7.91373 5.19711
						CHANNELS 3 Zrotation Xrotation Yrotation
						JOINT LeftArm
						{
							OFFSET 18.41580 0.00000 0.00000
							CHANNELS 3 Zrotation Xrotation Yrotation
							JOINT LeftForeArm
							{
								OFFSET 29.11090 0.00000 0.00000
								CHANNELS 3 Zrotation Xrotation Yrotation
								JOINT LeftHand
								{
									OFFSET 24.65040 0.00000 0.00000
									CHANNELS 3 Zrotation Xrotation Yrotation
									JOINT LeftHandThumb1
									{
										OFFSET 5.35114 -0.85590 3.97906
										CHANNELS 3 Zrotation Xrotation Yrotation
										JOINT LeftHandThumb2
										{
											OFFSET 4.52789 0.00000 0.00000
											CHANNELS 3 Zrotation Xrotation Yrotation
											JOINT LeftHandThumb3
											{
												OFFSET 2.46977 0.00000 0.00000
												CHANNELS 3 Zrotation Xrotation Yrotation
												End site
												{
													OFFSET 0.00000 0.00000 0.00000
												}
											}
										}
									}
									JOINT LeftHandIndex1
									{
										OFFSET 14.26970 0.00000 2.88139
										CHANNELS 3 Zrotation Xrotation Yrotation
										JOINT LeftHandIndex2
										{
											OFFSET 5.48836 0.00000 0.00000
											CHANNELS 3 Zrotation Xrotation Yrotation
											JOINT LeftHandIndex3
											{
												OFFSET 3.01859 0.00000 0.00000
												CHANNELS 3 Zrotation Xrotation Yrotation
												End site
												{
													OFFSET 0.00000 0.00000 0.00000
												}
											}
										}
									}
									JOINT LeftHandMiddle1
									{
										OFFSET 14.26970 0.00000 -0.09147
										CHANNELS 3 Zrotation Xrotation Yrotation
										JOINT LeftHandMiddle2
										{
											OFFSET 6.17440 0.00000 0.00000
											CHANNELS 3 Zrotation Xrotation Yrotation
											JOINT LeftHandMiddle3
											{
												OFFSET 3.56744 0.00000 0.00000
												CHANNELS 3 Zrotation Xrotation Yrotation
												End site
												{
													OFFSET 0.00000 0.00000 0.00000
												}
											}
										}
									}
									JOINT LeftHandRing1
									{
										OFFSET 12.69180 0.00000 -3.06433
										CHANNELS 3 Zrotation Xrotation Yrotation
										JOINT LeftHandRing2
										{
											OFFSET 5.62556 0.00000 0.00000
											CHANNELS 3 Zrotation Xrotation Yrotation
											JOINT LeftHandRing3
											{
												OFFSET 3.56744 0.00000 0.00000
												CHANNELS 3 Zrotation Xrotation Yrotation
												End site
												{
													OFFSET 0.00000 0.00000 0.00000
												}
											}
										}
									}
									JOINT LeftHandPinky1
									{
										OFFSET 11.11390 0.00000 -6.03719
										CHANNELS 3 Zrotation Xrotation Yrotation
										JOINT LeftHandPinky2
										{
											OFFSET 4.52789 0.00000 0.00000
											CHANNELS 3 Zrotation Xrotation Yrotation
											JOINT LeftHandPinky3
											{
												OFFSET 2.46976 0.00000 0.00000
												CHANNELS 3 Zrotation Xrotation Yrotation
												End site
												{
													OFFSET 0.00000 0.00000 0.00000
												}
											}
										}
									}
								}
							}
						}
					}
					JOINT pCube4
					{
						OFFSET 0.00000 10.91090 1.10792
						CHANNELS 3 Zrotation Xrotation Yrotation
						End site
						{
							OFFSET 0.00000 0.00000 0.00000
						}
					}
				}
			}
		}
	}
	JOINT RightUpLeg
	{
		OFFSET -9.98441 0.00000 0.00000
		CHANNELS 3 Zrotation Xrotation Yrotation
		JOINT RightLeg
		{
			OFFSET 0.00000 -42.11790 0.00000
			CHANNELS 3 Zrotation Xrotation Yrotation
			JOINT RightFoot
			{
				OFFSET 0.00000 -45.00020 -0.00001
				CHANNELS 3 Zrotation Xrotation Yrotation
				JOINT RightForeFoot
				{
					OFFSET 0.00000 -3.74820 0.00000
					CHANNELS 3 Zrotation Xrotation Yrotation
					JOINT RightToeBase
					{
						OFFSET 0.00000 0.06325 14.43120
						CHANNELS 3 Zrotation Xrotation Yrotation
						End site
						{
							OFFSET 0.00000 0.00000 0.00000
						}
					}
				}
			}
		}
	}
	JOINT LeftUpLeg
	{
		OFFSET 9.98441 0.00000 0.00000
		CHANNELS 3 Zrotation Xrotation Yrotation
		JOINT LeftLeg
		{
			OFFSET 0.00000 -42.11800 0.00000
			CHANNELS 3 Zrotation Xrotation Yrotation
			JOINT LeftFoot
			{
				OFFSET 0.00000 -45.00070 0.00000
				CHANNELS 3 Zrotation Xrotation Yrotation
				JOINT LeftForeFoot
				{
					OFFSET 0.00000 -3.74824 0.00000
					CHANNELS 3 Zrotation Xrotation Yrotation
					JOINT LeftToeBase
					{
						OFFSET 0.00000 0.06325 14.43110
						CHANNELS 3 Zrotation Xrotation Yrotation
						End site
						{
							OFFSET 0.00000 0.00000 0.00000
						}
					}
				}
			}
		}
	}
}
MOTION
Frames: 4
Frame Time: 0.050000
-0.03990641161120543 -0.004571873882993794 0.021072579114698228 0.02502015109318973 0.03519488934916112 -0.01898263838222071 -1.3215323207624248 1.3114344954310124 -0.9752123077196548 -0.4550994032405759 3.9905611768863687 0.29390542926542473 -0.7951596597318032 -1.8477232958622707 1.980496284227376 -1.4308957683271732 -0.8641224150952171 -0.2728645246470984 -0.1628381634659045 14.87060427260659 1.0607217330223033 0.6046858997085486 -0.2537393423697283 0.6710610930811383 0.4403527214139632 -15.2329927211598 0.024584298768574913 -4.634901892856387 1.7265152430816102 -13.674130839273717 69.08535585510954 -1.3515519010393489 47.26151634692381 9.36416633272998 6.012940167163442 109.81005038086712 19.0083206098131 -0.5342369149345398 -0.9615733065065819 4.55153077705825 -0.12685085363594653 -1.62611226620656 0.006778421830031707 -0.00891254969184499 -56.246703003363685 -0.0035589906651987855 0.0400646698262388 -56.18768753736853 -38.73714354911372 0.03476225621320422 0.008950756907382113 -0.012098606794468308 -0.0026345882021556167 0.008486849695664309 -0.021718977846834804 -0.04824445303279216 0.01085694595180145 -36.69996494748395 -0.02550662869287077 0.03457854561708983 0.028173999627743956 0.03866216632565544 0.013277234885147707 0.028899110673763672 -0.04530420389617418 0.0384131141962475 -19.75989044167653 0.012976916381941676 -0.042063964382987 0.010355427338908391 0.03844579182331046 -0.012902219798829122 -0.03611007034018596 -0.04362864647853063 0.046780491597828995 24.009739086902634 0.04862652851759592 0.007250101900702336 28.818993940930447 0.034589226546888584 -0.008040389179660672 28.867116585060135 -0.02856274437107715 -0.045838394490059636 5.391838518085165 1.3336493647233238 13.460336294071007 -70.72702310859945 17.03896152399414 -25.268273559392334 0.4275968369458356 -3.149533296132966 -98.004952706672 -18.765073107826076 8.830008231919699 -7.993777331043595 -0.46297954645907646 0.06244627363446032 -8.165236950202697 0.00033913332477889695 -0.026347082324199484 44.55374835783841 -0.019143534645086512 0.02118988679995974 44.54811186440304 12.420396777737885 0.03947474271591251 -0.03141531627199855 -0.046885760539516236 -0.04182751281413294 0.037712007693028175 -0.033472330104004064 0.019821518499409496 0.009745925087294105 11.09122171432887 0.002827593939418543 0.015356835820330353 0.006990581856407665 -0.03280472538852531 -0.018717904413228736 0.014815752314204612 0.011916568784921111 -0.028205411403229935 4.783249484735571 -0.027860055634993212 -0.011693793316112797 -0.004624491168614722 -0.036821282439005586 0.007306933078693877 0.031046963624664022 0.009311527899792341 0.011827958473407622 -5.636929653868051 -0.022289719029062252 -0.04903295193918057 -6.7313999911241735 0.014700691944730492 -0.0317002272577368 -6.703142423067658 -0.02963433553663975 0.028350795834310775 -0.048681382162778564 -0.027719436551601945 0.03201028059162838 8.049984283088843 3.4515461112276005 -19.198701057577093 0.034149177400255706 10.432403251253609 -0.024649016045898812 -5.580841940032866 -15.696060111533386 3.2176681957900093 0.004640481256939159 0.03316178807819926 -0.04113326795696398 -0.023289523039259657 4.688553830180109 -0.000334822698987433 12.44835281143433 -8.249261834095472 6.851064034751469 0.04952695788142028 46.38982736868287 -0.010630261326605307 -4.33895505272055 -14.723228466304638 -3.840844421731412 -0.03129105839132005 -0.0035683068756055835 0.03697400662437737 -0.04573340870304014 -10.7117790320714 0.004311515099033234 
0.0006049574404100551 -0.025605658218247937 -0.031332420660482856 0.037390239608003355 -0.04837432942129487 0.007343688853068273 -1.4188681107339156 1.2994938082396386 -0.9718727861511465 -0.45896434928028246 3.9581843682375335 0.3032836269352742 -0.8065394437853705 -1.9318898089045378 1.8643435908514625 -1.3772801672356387 -0.8913752789811573 -0.32578811252208234 -0.25212701066740884 15.100930442711006 1.2454672414181882 0.623944017383722 -0.2620033865523086 1.2833280571273185 0.408764379735051 -15.418724942782045 0.03351314347007131 -4.516652265681237 1.7013128623368117 -13.701348328504508 69.55408239588431 -0.3613670294214274 47.217383760383775 8.606316331227625 5.683242286980094 111.04157861733927 18.91872322584175 -0.516257153694922 -1.0262979226735303 4.564845353273118 -0.1111382629503455 -1.6028781261596183 0.041932992968177034 -0.004061832586066629 -56.28115692286642 -0.024969237218810905 -0.005255793419255971 -56.238906705030594 -38.73092761745456 -0.01285532969248673 0.0457537238785206 0.03894194790805142 0.02039295792986771 0.02476987465250848 0.02439838900796303 0.03008194129378658 -0.011405161595737498 -36.734448462635235 0.01635053116440238 0.026500972359108074 0.03764596288858797 -0.0416853680362727 -0.015909133740476308 0.039704017879454094 -0.019992968023550658 0.01118251818032089 -19.78389785096525 0.005538408667067315 0.0462166991353785 0.001886202456960828 -0.012229895272652346 -0.01878838124453291 -0.020203420255528435 -0.03295708079056328 0.04824996624704608 24.029150753912674 0.004081869189605346 -0.04885521468228218 28.871048051236976 -0.02474959004001942 -0.023795938083915873 28.878081281770715 0.01977229802293892 -0.0008630947378564127 5.655990262626424 1.3654086908860157 13.469691619119116 -70.43588070376214 17.73118926830781 -27.014229047617835 2.924439862868578 -4.209699938140035 -101.13388409599773 -18.21535341089763 8.920448346617341 -8.061755935004813 -0.4870149770681023 0.11117437631813425 -8.14690750564913 0.017460414083897126 -0.009108646828833056 44.51787361172175 0.043877894851125386 0.03351354168138836 44.61174359867938 12.457788359146669 -0.03810989439203366 -0.010323671700154614 -0.03381856010042851 -0.0049066561436922045 -0.02989745729222754 -0.006293312768329214 0.018721815724965285 -0.007612683680101759 11.09068394015069 0.03247951636734308 0.048897894318629585 -0.04582462696223494 -0.002013749344585156 -0.0132088622962292 0.018309082613730734 -0.019558262269430214 -0.020995687342991683 4.809252661602621 -0.011325820095784292 -0.007569052845502876 -0.018640266694083505 0.023077896636431425 -0.010026683143588419 -0.03051488864847245 -0.041630205674375 0.03856982662432327 -5.600270581699371 0.0397156848255757 0.021865743175541744 -6.756334573765775 -0.018602493404487427 0.022016883382777006 -6.754081840671188 0.028489554277946662 0.02648831679104917 0.04253101226924427 -0.0031452530901004984 -0.04870787999711417 8.059678600778987 3.501824422900822 -19.228073782486042 -0.010653572955993635 10.384548973410329 0.059535682542392276 -5.660031483415275 -15.652021724866882 3.230729319804838 -0.011796090638972285 -0.03584203693966815 -0.0021527797341541416 0.01571915114063703 4.728890815491992 0.015325424868255368 12.439276988750661 -8.195580188883303 6.911509785786688 0.021029763437695213 46.339766737766894 0.005388909857787233 -4.353652042876858 -14.726145475738123 -3.8197690657623653 0.017445125365616137 -0.03351551600132282 0.03606980152786514 -0.04576658347416802 -10.709647079404556 -0.0010624944188366982 
-0.025851021423681692 0.006721203167608965 -0.04363304722829367 -0.028948777402829848 -0.032414876777331236 -0.011732346936191344 -1.409733186773358 1.2562290859873344 -1.0500599988957442 -0.4239498438613277 3.9760148215975697 0.36642271700335355 -0.8332983952083606 -1.9304912655316304 1.7643588119010571 -1.3224827878406618 -0.8162130472806639 -0.309612383537054 -0.282919583706072 15.316376731264906 1.270208683633215 0.5719410995421453 -0.34693234778232995 1.458364423744261 0.3931384456030254 -15.530889132587141 0.09515598466174088 -4.468004172337944 1.6720766655424815 -13.763735344519672 70.298498890642 0.36783388335400474 47.30979622631731 7.558468467965122 5.259947507197241 112.41234349150737 18.646856712001128 -0.5643603062661658 -1.0145105038917448 4.480584007491414 -0.09977041229817082 -1.6356433805165713 -0.0005313311432455136 -0.04416860759269542 -56.203442185490466 0.013196703236075597 0.02713141888099484 -56.266694227466964 -38.75971013805611 -0.0010124469127474188 0.04750604150706587 -0.00593410129797863 0.020453390773195086 0.031881457067916646 0.009966414434880888 -0.0029297887151823352 -0.03131477811630554 -36.72820752757513 -0.024284892453732807 0.019130489435776454 -0.016528167667167977 0.03008295990678833 -0.015588739175421515 0.026841333401335855 0.0356670678928571 -0.04979202943434645 -19.77294023485438 -0.005237326004788994 0.02247002709271027 0.04373594524047074 0.01717775242619789 -0.012191267603617693 0.04078115733420195 -0.04408575675508099 0.026012048051374716 24.03271447699267 0.032435250359213 0.022615546142300984 28.90177519083653 -0.031952569564679775 -0.0156866504694839 28.880764708317354 0.04565662338931573 -0.005028639976951323 5.957917582896405 1.4664731215816256 13.458041297635031 -70.22876514876023 18.308033087033042 -28.706009735714055 5.11222294909793 -5.07765844520936 -103.68993654425938 -17.473877801078046 8.816792193415525 -8.02448274037874 -0.5075412274688813 0.0958925907949654 -8.11803212565001 -0.029327989973907228 0.00987810481365595 44.580637691479716 -0.024885084673313317 -0.02574489969703578 44.538757287916944 12.425195276439297 0.0053823323236941376 -0.019925729448836853 0.02643194711182669 0.023861145534841095 0.00743042881676629 -0.030182711132152415 0.026518008569236376 -0.04957895160821359 11.105786500599176 0.024880591181870037 -0.04419956723736978 0.0009063773715327272 -0.03381377134757211 0.019087328229855736 0.019311776063865978 0.046950686711314006 0.005490541856798829 4.753183261786178 -0.039796249811619167 -0.019304692125723152 -0.019727968717964017 0.01935795868964174 -0.008359685334752318 -0.04035638062863811 0.012426729586712537 -0.01569363898155664 -5.643329767535454 0.04017053223136103 -0.013383085383650819 -6.706717389720065 0.042202695810340835 0.008671217059956101 -6.740947600269078 0.004258775338552655 -0.039871222873301346 -0.03665164821991753 0.022462923761516734 0.013425601558531135 8.03552722194336 3.5006994251036763 -19.24841404365122 -0.023993622905137492 10.362433494059557 0.016113121764740522 -5.63628786037571 -15.611324292473107 3.2175035798549114 -0.0001543542836967952 -0.01951688810280968 -0.001468653756906945 -0.014152184208142942 4.653208684628327 -0.0077796152580811104 12.499141024500972 -8.204433364918632 6.90760385318704 0.02813599590637496 46.388075858450314 0.028917974548835743 -4.374381358054204 -14.725255326316315 -3.8294036630409907 0.0004477443274935827 0.037969927824413066 0.025235511086521556 0.010933653768235565 -10.767493154918196 0.02440921706390355 
-0.04881549390584871 -0.007529210457752177 -0.008670159528552922 0.04409153379745315 -0.04101736259709917 0.0012519195720699825 -1.4016024987320872 1.161746961099608 -1.0154997652459687 -0.4397730520363296 4.0151693689833134 0.2905427530617257 -0.7789222698899035 -1.9276645834810349 1.6599661946991997 -1.3428468581324335 -0.8130380181001321 -0.348810746132154 -0.39663126453931685 15.565344323189008 1.2683334091241945 0.5611637279124146 -0.3871156971297838 1.605439544678564 0.41573635677853354 -15.736942668163898 0.06042649877002177 -4.505793890548507 1.6763019759323252 -13.788251984902988 70.70168425780015 1.7947881774978103 47.51474454459191 6.199211634913334 4.708307335068821 113.7304845749793 18.21619256452986 -0.5311615199532834 -1.0053539294099239 4.534514189358043 -0.1151146700931987 -1.5905733205409247 0.03211735344540609 -0.019190441217840103 -56.24457835788292 -0.039668585196423065 0.044317248669017 -56.21549954549751 -38.791116785655845 0.01960597710138122 0.04108616949599492 0.04174948219022022 -0.04519226464615311 0.027777891713209248 -0.041996691679995084 -0.037525509007672216 0.00773915360989149 -36.67713920673842 0.027359327719920064 0.006465739928912652 -0.03726645808955382 -0.021030577826860117 -0.040766766605042644 0.011229189901067306 -0.028560299284492403 -0.019438031633161233 -19.723538704138946 0.003305938988659782 0.03989421752851536 -0.023950088486770126 0.012902053133790238 -0.01658148506660512 0.009065152969855763 -0.004006291124796215 0.02231664758989618 24.097617038726458 -0.02953931560974594 0.03791765096985774 28.844506563841964 -0.0072078605958107765 -0.035136574185073856 28.85625933339081 -0.0253488977435763 -0.04164937128486312 6.220600954689655 1.5085805188025954 13.507308663421242 -70.06015142395405 18.89970766504566 -30.250013757105265 6.509587288078718 -5.644073503292048 -105.68018357274946 -16.817331437756348 8.540789443754884 -7.818883611111367 -0.5144994976222361 0.044696047453983936 -8.107125305660716 -0.01864801560191944 0.033688706124965016 44.543317784687055 -0.0190245553707839 -0.04479765897339519 44.58241828879926 12.500123414005627 0.011239124891611057 -0.020919558276103308 -0.017584418918726964 -0.013263340799070562 0.0425496191386228 0.010930168794247448 -0.03803454464596234 0.017293262757293683 11.065373373198941 0.028068339378222843 -0.022069993614171925 -0.0008074087869413684 0.005513381833779667 0.017312358578473738 -0.022767226220494437 0.0030584857974111025 0.02556577497971751 4.7765524231959064 -0.03816117732320244 -0.022904679723378858 -0.005417314621878834 0.0008313687392449408 -0.009020669190866396 0.017205285718439906 -0.026599547409185624 0.02784848167601096 -5.579349853730214 0.019935123790098635 0.0074975420700027105 -6.706299425575207 -0.010697184336196654 0.007466302204713175 -6.732375695153972 -0.00210655005253513 0.04037226653998743 0.023135104759971825 0.016389287040911152 0.0313301212018289 8.093960648798795 3.4754069405311476 -19.260806754124552 0.023606296596082748 10.421102776273448 0.014586212723667141 -5.66299348491001 -15.700991725675662 3.1580401899125734 0.03464151027387183 0.02337305443232075 -0.014581480573851884 -0.04906011003257924 4.682516441373228 -0.012869169981650677 12.491753950646157 -8.242616663419447 6.853746732943205 0.004839102275156472 46.41438680688247 -0.03221725004076042 -4.32258920925924 -14.784672044040793 -3.8792359261506615 0.035815840542479 -0.00724268666374211 0.017326763027984523 0.042608275867221546 -10.779478060310613 -0.014984030793554981 
